<svg xmlns="http://www.w3.org/2000/svg" viewBox="0 0 225 120">
  <g aria-label="CTW Development">
    <path d="M15.1145 48.2276q-5.5178 0-7.8587-3.3024-2.299-3.3502-2.299-9.62V21.33q0-6.4132 2.299-9.6677 2.299-3.3024 7.8587-3.3024 5.3088 0 7.5243 2.9195 2.2155 2.9194 2.2155 8.2798v3.3502H17.539v-3.8767q0-2.2494-.418-3.4459t-2.0065-1.1965q-1.5885 0-2.09 1.2922-.5017 1.2444-.5017 3.4938v18.2348q0 2.2973.5016 3.5417.5434 1.1965 2.0901 1.1965t1.9647-1.1965q.4598-1.2444.4598-3.5417V33.343h7.3153v3.3502q0 5.4561-2.2155 8.5192-2.2155 3.0152-7.5243 3.0152zM31.9815 15.5164h-5.0998V9.1509h17.682v6.3655h-5.058v32.4014h-7.5242zM46.1653 9.012h6.3538l2.0065 22.5902 2.5499-22.5423h4.9744l2.6753 22.3987L66.7735 9.012h6.2702L68.989 47.779h-6.521l-2.8843-23.4037-2.7171 23.4037h-6.6047zM5.7668 64.6388h8.5693q4.3892 0 6.8555 1.2444 2.4663 1.2443 3.4695 3.9245 1.045 2.6323 1.045 7.0833v14.071q0 4.4989-1.045 7.179-1.0032 2.6802-3.4695 3.9725-2.4245 1.2922-6.7719 1.2922H5.7668zm8.653 32.8322q1.6302 0 2.3826-.5265.7943-.5743 1.0033-1.5794.209-1.0529.209-3.063V75.4074q0-1.8666-.2508-2.8238-.209-1.005-1.0033-1.4837-.7524-.4786-2.3827-.4786h-1.1286V97.471zM37.7842 103.8843q-3.9711 0-6.1866-2.393-2.2155-2.4409-2.2155-6.844V84.5007q0-4.4031 2.2155-6.7961 2.2155-2.441 6.1866-2.441 4.013 0 6.0195 2.3452 2.0064 2.3452 2.0064 6.892v5.5517h-9.698v5.3125q0 2.9674 1.6721 2.9674 1.7557 0 1.7557-2.6802v-2.9195h6.2702v2.6802q0 4.1639-2.1318 6.3176-2.0901 2.1537-5.894 2.1537zm1.7557-17.469v-2.776q0-1.5315-.5016-2.1537-.4598-.67-1.2959-.67-.7942 0-1.2122.7179-.418.718-.418 2.5366v2.3452zM47.846 75.7424h6.521l2.0065 17.6605 1.8393-17.6605h6.521l-4.9743 27.6633H52.695zM75.0954 103.8843q-3.9711 0-6.1866-2.393-2.2155-2.4409-2.2155-6.844V84.5007q0-4.4031 2.2155-6.7961 2.2155-2.441 6.1866-2.441 4.013 0 6.0195 2.3452t2.0065 6.892v5.5517h-9.698v5.3125q0 2.9674 1.672 2.9674 1.7557 0 1.7557-2.6802v-2.9195h6.2703v2.6802q0 4.1639-2.132 6.3176-2.09 2.1537-5.894 2.1537zm1.7557-17.469v-2.776q0-1.5315-.5016-2.1537-.4598-.67-1.2959-.67-.7942 0-1.2122.7179-.418.718-.418 2.5366v2.3452zM87.1637 64.6388h6.7719v38.7669h-6.7719zM106.2435 103.8843q-3.9711 0-6.2284-2.2973-2.2155-2.2973-2.2155-6.7483V84.3094q0-4.451 2.2155-6.7483 2.2573-2.2973 6.2284-2.2973 3.9712 0 6.2285 2.3451 2.2573 2.2973 2.2573 6.7005v10.5293q0 4.4031-2.2573 6.7483-2.2573 2.2973-6.2285 2.2973zm.0418-5.169q.9615 0 1.3377-.8135.3762-.8615.3762-2.5367V83.783q0-1.675-.3762-2.4887-.3762-.8615-1.3377-.8615-.9614 0-1.3794.8615-.3762.8615-.3762 2.4887v11.5822q0 1.6752.3762 2.5367.418.8136 1.3794.8136zM118.4672 75.7424h6.8137v2.0101q1.1704-1.2443 2.5499-1.8665 1.3794-.6222 2.6753-.6222 2.6335 0 3.8875 2.2494 1.2959 2.2495 1.2959 5.8869v11.9172q0 3.9724-1.3795 6.2697-1.3794 2.2973-3.8875 2.2973-2.55 0-5.1416-2.5845v11.1994h-6.8137zm8.6112 23.1166q.9196 0 1.3376-.8615.4598-.8615.4598-2.2495V82.8257q0-1.2443-.418-2.058-.418-.8136-1.254-.8136-1.0033 0-1.923.9572v17.2298q.9615.7179 1.7976.7179zM139.613 75.7424h6.6882v2.2016q2.4245-2.728 5.7268-2.728 1.4631 0 2.5081.8614 1.0869.8136 1.6303 2.4409 2.55-3.3024 6.1448-3.3024 2.132 0 3.386 1.8187 1.2958 1.7709 1.2958 4.8818v21.4893h-6.6882V82.73q0-1.1486-.3762-1.6272-.3345-.5265-1.045-.5265-.4599 0-1.087.2872-.627.2393-1.1704.7179v21.8243h-6.6046V82.73q0-2.1537-1.463-2.1537-.9615 0-2.2574 1.005v21.8244h-6.6882zM179.028 103.8843q-3.9712 0-6.1867-2.393-2.2155-2.4409-2.2155-6.844V84.5007q0-4.4031 2.2155-6.7961 2.2155-2.441 6.1867-2.441 4.013 0 6.0194 2.3452 2.0065 2.3452 2.0065 6.892v5.5517h-9.698v5.3125q0 2.9674 1.672 2.9674 1.7557 0 1.7557-2.6802v-2.9195h6.2703v2.6802q0 4.1639-2.1319 6.3176-2.09 2.1537-5.894 2.1537zm1.7556-17.469v-2.776q0-1.5315-.5016-2.1537-.4598-.67-1.2958-.67-.7943 0-1.2123.7179-.418.718-.418 2.5366v2.3452zM190.8036 75.7424h6.8137v2.7759q2.8425-3.2545 5.8104-3.2545 2.1737 0 3.3023 1.8187 1.1705 1.7708 1.1705 4.6424v21.6808h-6.7719v-20.58q0-1.0529-.3344-1.5315-.2926-.5265-1.045-.5265-.836 0-2.132 1.0051v21.6329h-6.8136zM219.5135 103.6929q-2.6753 0-4.1384-.8615-1.463-.9094-2.0482-2.5845-.5853-1.6751-.5853-4.3553V80.8635h-2.3409v-5.1211h2.341V67.319h6.8972v8.4234h3.4277v5.121h-3.4277v14.2624q0 1.1487.5434 1.723.5852.5265 1.5885.5265.836 0 1.8393-.1915v6.1262q-2.0065.3829-4.0966.3829z" class="plugin-stroke"/>
    <path d="M265.9473 105.3012l88.9828.1484.3377 51.0522h-89.6582z" class="svgCTWlogo" fill="#15087f" stroke="#fff" stroke-width=".9498" transform="matrix(.49372 0 0 .56528 .514 -43.139)"/>
    <path d="M269.9403 107.75h80.9911v46.3031h-80.991z" class="svgCTWlogo" fill="none" stroke="#fff" stroke-width=".9505" transform="matrix(.49372 0 0 .56528 .514 -43.139)"/>
    <path class="svgCTWlogo" stroke="#fff" stroke-width=".9528" fill="none" d="M274.1285 111.757h72.7249v38.586h-72.7249z" transform="matrix(.49372 0 0 .56528 .514 -43.139)"/>
    <path d="M274.1285 142.2547h72.555l-.17.0742" class="svgCTWlogo" fill="none" stroke="#fff" stroke-width=".9528" transform="matrix(.49372 0 0 .56528 .514 -43.139)"/>
    <path d="M265.8025 112.2764v33.2433s-14.1881 4.2296-21.6645-1.7067c-7.4764-5.9363-11.3845-10.0917-14.443-7.272-3.0585 2.8198-10.7049 12.1694-25.8275 5.9363-15.1227-6.2331-18.691-5.6395-34.3235-1.1872 0 0-6.3719 2.8197.4248-4.1555 12.3122-14.5712 20.7558-24.0477 49.1913-21.148 6.202 1.2614 11.8093 1.113 16.1422-1.0389 4.3329-2.1519 4.248-6.9751 15.5475-4.378 11.2995 2.5971 6.6268 2.2261 14.9527 1.7067zm89.7283.3608s4.2053-.3148 10.9337-3.2531c6.7284-2.9384 11.5344 3.7778 11.5344 3.7778h32.4405s10.6934-1.784 37.607 20.883c0 0 1.395 2.5332-3.0654 1.2347-4.4604-1.2986-15.675-4.5636-26.9745-.705-11.2995 3.8586-17.8839 8.5706-24.9355 3.302-7.0515-5.2684-10.4499-6.8267-17.6714-1.113-7.2215 5.7137-12.5315 7.2349-19.7955 6.9752z" class="svgCTWlogo" fill="#ce0427" stroke="#fff" stroke-width=".9528" transform="matrix(.49372 0 0 .56528 .514 -43.139)"/>
    <path d="M265.2453 119.1435s-12.2025 2.0463-18.7507-2.6235c-6.5482-4.6698-9.0393 1.0144-13.3555 2.2562-6.2282 1.792-10.5912 5.8335-30.458 1.3117-11.6212-2.645-23.831 13.2225-25.1527 14.7966-1.3216 1.574 8.771-2.6235 13.2165-3.568 4.4456-.9444 10.3996-2.5345 22.348 1.4692 9.552 3.2006 14.5381-4.6174 19.1038-5.5618 3.5445-.6822 5.2866.4197 7.6296 2.8858 2.3429 2.4661 11.8948 4.6174 18.503 3.0433 5.8958-1.616 6.849-2.4136 6.8487-2.4137M355.9511 123.0505c1.6822-.2098 5.7673-1.8889 8.8912-3.7778 3.1239-1.889 7.6896-6.2964 10.3329-4.1976 2.6433 2.0988 5.8873 3.463 13.2165 2.5186 7.3291-.9445 15.259-2.4137 24.2703.4197 9.0113 2.8334 25.1114 9.2347 25.8023 12.3567-.4206 1.2593-6.368-2.3087-13.0964-2.9383-6.7284-.6296-14.388-1.443-20.5157 1.3904-6.1276 2.8334-16.9411-1.4691-18.0225-2.5185-1.0813-1.0494-5.2866-4.8273-13.577-.7346-8.2903 4.0927-14.418 7.3458-17.1814 7.031" class="svgCTWlogo" fill="#fffcfc" stroke="#000" stroke-width=".3176" transform="matrix(.49372 0 0 .56528 .514 -43.139)"/>
    <g aria-label="DEVELOPMENT" style="line-height:1.25" font-weight="400" font-size="8.0169" font-family="sans-serif" letter-spacing="0" word-spacing="0" fill="#fff" stroke-width=".4179">
      <path d="M139.8354 39.525q0 .3892-.1985.7055-.1964.3163-.5243.4907-.2276.1208-.5087.1744-.2789.0537-.7363.0537h-.8388v-2.8542h.83q.4863 0 .7719.0614.2878.0594.4863.1648.3391.1821.5288.485.1896.3028.1896.7188zm-.4618-.0056q0-.3355-.1361-.5655-.1361-.23-.406-.3623-.1964-.0958-.4173-.1323-.2208-.0383-.5287-.0383h-.415v2.2025h.415q.319 0 .5555-.0403.2387-.0402.4373-.1495.2476-.1361.3704-.3585.1249-.2223.1249-.5558zM142.7425 40.9493h-2.1887v-2.8542h2.1887v.3374h-1.747v.782h1.747v.3374h-1.747v1.06h1.747zM146.0645 38.0951l-1.2092 2.8542h-.589l-1.2093-2.8542h.473l1.042 2.5111 1.0418-2.511zM148.7574 40.9493h-2.1887v-2.8542h2.1887v.3374h-1.747v.782h1.747v.3374h-1.747v1.06h1.747zM151.5618 40.9493H149.46v-2.8542h.4418v2.5168h1.6599zM154.4354 38.423q.203.1916.31.4695.1094.278.1094.6307t-.1116.6325q-.1093.278-.3078.464-.2053.1935-.4864.2913-.2789.0977-.638.0977-.3504 0-.6382-.0996-.2855-.0997-.4863-.2895-.2008-.1897-.3101-.4658-.1071-.276-.1071-.6306 0-.3489.107-.625.1071-.2779.3124-.4753.1963-.1878.4864-.2875.2922-.0997.6358-.0997.357 0 .6403.1016.2856.0997.4842.2856zm-.0402 1.1002q0-.556-.29-.8569-.29-.3028-.792-.3028-.5065 0-.7966.3028-.2878.301-.2878.8569 0 .5616.2945.8606.2945.2972.7898.2972.4953 0 .7876-.2972.2945-.299.2945-.8606zM157.7284 38.9577q0 .1898-.0781.3527-.0759.161-.2142.2799-.1718.1476-.406.2223-.2343.0729-.5913.0729h-.4417v1.0638h-.4418v-2.8542h.9014q.299 0 .5064.0441.2075.0422.3682.1342.1896.1092.2922.2722.1049.1629.1049.412zm-.4596.0096q0-.1476-.0603-.2569-.0602-.1092-.1829-.1782-.107-.0594-.2454-.0844-.1361-.0268-.3458-.0268h-.4373v1.1405h.3726q.2677 0 .435-.0402.1674-.0422.2722-.1323.1049-.092.1473-.1936.0446-.1016.0446-.228zM161.2713 40.9493h-.4418V38.49l-.9236 1.6734h-.2633l-.917-1.6734v2.4593h-.4127v-2.8542h.6024l.8857 1.5891.8567-1.589h.6136zM164.3568 40.9493h-2.1886v-2.8542h2.1886v.3374H162.61v.782h1.747v.3374h-1.747v1.06h1.747zM167.594 40.9493h-.5466l-1.575-2.5532v2.5532h-.4128v-2.8542h.685l1.4367 2.331v-2.331h.4128zM170.847 38.4325h-1.187v2.5168h-.4418v-2.5168h-1.1869v-.3374h2.8156z" class="svgCTWlogo"/>
    </g>
    <g aria-label="C" style="line-height:1.25;-inkscape-font-specification:'Sitka Heading, Bold';font-variant-ligatures:normal;font-variant-caps:normal;font-variant-numeric:normal;font-feature-settings:normal;text-align:start" font-weight="700" font-size="27.5752" font-family="Sitka Heading" letter-spacing="0" word-spacing="0" opacity=".98" fill="#fff" stroke-width="1.4374">
      <path d="M143.3755 29.9011q-1.1026 0-1.9945-.2984-.892-.3045-1.524-.8596-.632-.561-.9762-1.3668-.3441-.8058-.3441-1.8146 0-.6565.1685-1.2355.1686-.579.4776-1.0625.309-.4894.7444-.8714.4354-.388.9762-.6506.5408-.2686 1.1658-.4119.6321-.1432 1.3274-.1432.3652 0 .8217.0477.4565.0418.913.1075.4635.0656.8708.1492.4144.0776.6953.1552v2.1428h-.6461l-.4705-1.0804q-.0422-.0955-.1265-.1552-.0842-.0597-.1685-.1014-.4144-.197-.8498-.3104-.4354-.1194-.941-.1194-.597 0-1.0957.2149-.4916.2089-.8427.6327-.3442.4178-.5338 1.0386-.1896.6207-.1896 1.4325 0 .8476.2107 1.4982t.625 1.0982q.4144.4477 1.0184.6745t1.3835.2268q.4986 0 .885-.0895.3932-.0955.7022-.2328.316-.1432.5548-.3104.2458-.1671.4425-.3104h.3792v.7163q-.288.2149-.6882.4417-.4003.2208-.885.4119-.4775.191-1.0112.3103-.5268.1254-1.0746.1254z" style="-inkscape-font-specification:'Sitka Heading, Bold';font-variant-ligatures:normal;font-variant-caps:normal;font-variant-numeric:normal;font-feature-settings:normal;text-align:start" class="svgCTWlogo"/>
    </g>
    <g aria-label="T" style="line-height:1.25;-inkscape-font-specification:'Sitka Heading, Bold';font-variant-ligatures:normal;font-variant-caps:normal;font-variant-numeric:normal;font-feature-settings:normal;text-align:start" font-weight="700" font-size="26.5788" font-family="Sitka Heading" letter-spacing="0" word-spacing="0" fill="#fff" stroke-width="1.3854">
      <path d="M150.8185 32.6678l.961-.287q.1311-.0313.1997-.1186.075-.0874.075-.2247v-6.8459h-1.8286q-.1185 0-.181.0624-.0561.0562-.0873.1623l-.4493 1.3667h-.5804v-2.4151h8.1502v2.415h-.5804l-.4493-1.3666q-.0312-.0999-.0936-.1623-.0562-.0624-.1623-.0624h-1.8534v6.846q0 .1372.0811.2246.0874.0874.1997.1186l.961.287v.4369h-4.3621z" style="-inkscape-font-specification:'Sitka Heading, Bold';font-variant-ligatures:normal;font-variant-caps:normal;font-variant-numeric:normal;font-feature-settings:normal;text-align:start" class="svgCTWlogo"/>
    </g>
    <g aria-label="W" style="line-height:1.25;-inkscape-font-specification:'Sitka Heading, Bold';font-variant-ligatures:normal;font-variant-caps:normal;font-variant-numeric:normal;font-feature-settings:normal;text-align:start" font-weight="700" font-size="24.7073" font-family="Sitka Heading" letter-spacing="0" word-spacing="0" fill="#fff" stroke-width="1.2879">
      <path d="M158.1135 28.2718q-.0349-.1102-.116-.1915-.0813-.087-.1973-.1334l-.5337-.2204v-.412h3.5677v.412l-.9978.2842 1.4445 4.699.1392.551h.0406l1.3923-4.4262.6091-1.4677h.9572l1.6533 5.3313.1625.5975h.0348l1.6591-5.2153-.9746-.3538v-.412h2.6744v.412l-.5511.2668q-.0929.0465-.1915.1392-.0986.0929-.1334.203l-1.897 5.7258-.5975 1.4561h-1.0674l-1.52-4.9078-.2146-.7773h-.0348l-1.3459 4.229-.6033 1.4561h-1.1312z" style="-inkscape-font-specification:'Sitka Heading, Bold';font-variant-ligatures:normal;font-variant-caps:normal;font-variant-numeric:normal;font-feature-settings:normal;text-align:start" class="svgCTWlogo"/>
    </g>
  </g>
</svg>
